<svg id="Livello_1" data-name="Livello 1" xmlns="http://www.w3.org/2000/svg" viewBox="0 0 500.04 486.35"><defs><style>.cls-1{fill:#15156b;}.cls-2{fill:#3939bc;}.cls-3{fill:#fff;}</style></defs><title>logo-seo</title><path class="cls-1" d="M500,89.08a88.94,88.94,0,0,0-88.88-89H411Q250.38,0,89.73.08a87.52,87.52,0,0,0-21,2.6C27.63,13.18.53,47,.33,91.08c-.6,99.1-.2,198.3-.2,297.4a150.72,150.72,0,0,0,1.6,22.2c7.2,44.5,43.4,75.7,88.4,75.7h320.8c49.6,0,89-39.5,89-89.2Q500.08,243.13,500,89.08Z" transform="translate(0 -0.03)"/><path class="cls-2" d="M250,455.59H390.56a77.33,77.33,0,0,0,77.73-77.91q.13-134.55.09-269.09a77.68,77.68,0,0,0-77.63-77.73h-.1q-70.31,0-140.62,0" transform="translate(0 -0.03)"/><circle class="cls-3" cx="117.76" cy="251.97" r="43.5"/><circle class="cls-3" cx="244.44" cy="323.2" r="43.5"/><circle class="cls-3" cx="370.05" cy="129.84" r="43.5"/><rect class="cls-3" x="228.8" y="213.61" width="161.16" height="28.41" rx="6.53" ry="6.53" transform="translate(669.22 93.12) rotate(123.12)"/><rect class="cls-3" x="132.99" y="277.82" width="106.94" height="29.87" rx="6.53" ry="6.53" transform="translate(218.65 638.31) rotate(-152.83)"/><rect class="cls-3" x="9.01" y="293.99" width="106.94" height="29.87" rx="6.53" ry="6.53" transform="translate(-200.14 134.64) rotate(-45)"/><rect class="cls-3" x="383.27" y="160.61" width="106.94" height="29.87" rx="6.53" ry="6.53" transform="translate(166.84 -210.12) rotate(33.12)"/></svg>