<?xml version="1.0" encoding="utf-8"?>
<!-- Generator: Adobe Illustrator 21.0.0, SVG Export Plug-In . SVG Version: 6.00 Build 0)  -->
<svg version="1.1" id="Livello_1" xmlns="http://www.w3.org/2000/svg" xmlns:xlink="http://www.w3.org/1999/xlink" x="0px" y="0px"
	 viewBox="0 0 500 500" style="enable-background:new 0 0 500 500;" xml:space="preserve">
<style type="text/css">
	.st0{fill:#0C74B8;}
	.st1{fill:#30A8DA;}
	.st2{fill:#FFFFFF;}
</style>
<path class="st0" d="M500,95.9c0-49.2-39.7-89-89-89c-107.1-0.1-214.2,0-321.3,0c-7.1,0-14.2,0.8-21,2.6C27.6,20,0.5,53.9,0.3,97.9
	C-0.3,197,0.1,296.2,0.1,395.3c0,7.4,0.5,14.8,1.6,22.2c7.2,44.5,43.4,75.7,88.4,75.7c53.3,0,106.6,0,159.9,0
	c53.6,0,107.3,0,160.9,0c49.6,0,89-39.5,89-89.2C500,301.3,500,198.6,500,95.9z"/>
<path class="st1" d="M250,462.8c46.9,0,93.9,0,140.8,0c43.4,0,77.9-34.6,77.9-78.1c0-89.9,0-179.7,0-269.6c0-43-34.8-77.9-77.8-77.9
	c-47,0-94,0-140.9,0"/>
<path class="st2" d="M249.2,397.5c-33-9.3-65.9-18.9-99-27.9c-5.4-1.5-7.1-3.8-7.5-9c-1.9-23-4.1-46-6.3-69.1
	c-0.4-3.8,0.3-5.6,4.7-5.5c14.1,0.3,28.1,0.2,42.2,0c4.1-0.1,5.3,1.4,5.6,5.2c0.7,10.5,1.8,20.9,2.8,31.3c0.2,2.3-0.2,4.7,3.2,5.5
	c18.2,4.6,36,10.6,54.5,14.3c19.1-3.6,37.4-9.8,56.2-14.7c2.9-0.7,2.4-3.2,2.5-5.2c1.8-18.9,3.5-37.9,5.4-56.8
	c0.4-3.9-0.4-5.6-4.8-5.6c-19.8,0.2-39.5,0.2-59.3,0.3c-16.7-0.1-33.4-0.5-50.1-0.3c-5.5,0.1-7.2-1.5-7.5-7.1
	c-0.7-12.8-2.1-25.7-3.6-38.4c-0.6-5.2,0.3-7.1,6.1-7c18.4,0.3,36.7-0.1,55.1-0.2c21.2,0.1,42.4,0.1,63.6,0.2c3.3,0,5.3-0.5,5.6-4.5
	c1.2-14.7,2.5-29.4,3.9-44.1c0.3-3.1-1.1-4.3-4.1-4.3c-23.1,0.2-46.2,0.3-69.3,0.5c-2.8-0.2-5.7-0.5-8.5-0.5
	c-36.5,0-73-0.1-109.4,0.1c-4.9,0-7.3-1-7.6-6.5c-0.7-13.1-1.9-26.1-3.4-39.2c-0.6-5.2,1.1-6.4,6.1-6.4c38.1,0.2,76.3,0.1,114.4,0.1
	c2.8,0,5.7-0.2,8.5-0.4c2.6,0.1,5.2,0.2,7.8,0.2c37.9,0,75.8,0,113.8,0c9.2,0,9.3,0,8.4,9.5c-1.2,13.5-2.6,27-3.8,40.6
	c-6.3,70-12.5,140-18.6,210c-0.3,3.8-1.8,5.4-5.2,6.3C317.6,378.5,283.4,388,249.2,397.5z"/>
</svg>
