<svg id="Livello_1" data-name="Livello 1" xmlns="http://www.w3.org/2000/svg" viewBox="0 0 500 486.38"><defs><style>.cls-1{fill:#2f1110;}.cls-2{fill:#f8991d;}</style></defs><title>logo-illustrator</title><path class="cls-1" d="M500,95.89a89,89,0,0,0-89-89q-160.66-.11-321.32,0a84.27,84.27,0,0,0-21,2.6C27.57,20,.54,53.86.3,97.91-.25,197,.13,296.19.11,395.33A137.85,137.85,0,0,0,1.76,417.5C8.95,462,45.12,493.16,90.17,493.18q79.93,0,159.86,0,80.46,0,160.92,0c49.62,0,89-39.51,89-89.24Q500,249.92,500,95.89ZM158.62,206.46q0-15.4,0-30.8,0,15.4,0,30.8,0,7.83,0,15.67Q158.63,214.29,158.62,206.46ZM113.22,241c0-25.88,0-51.76,0-77.64.05,25.88,0,51.76,0,77.64s0,52,0,78Q113.27,280,113.22,241Z" transform="translate(0 -6.81)"/><path class="cls-2" d="M284.1,357.09c-6.16,0-12.34-.25-18.49.09-4.11.22-5.87-1.49-7.1-5.2-4.76-14.37-9.87-28.63-14.67-43-.94-2.82-2.19-3.85-5.26-3.83q-34.73.22-69.46,0c-3.26,0-4.53,1-5.48,4.14-4.41,14.3-9.25,28.48-13.7,42.77-1.2,3.85-3.16,5.2-7.18,5.11-11.16-.24-22.32-.08-33.48-.09-6.29,0-6.62-.4-4.62-6.17Q126,289.37,147.36,227.85q12.34-35.6,24.57-71.24a37.75,37.75,0,0,0,2-14.25c-.19-3.93,1.55-4.71,5.06-4.68q24.24.21,48.47,0c3.47,0,4.92,1.24,6,4.39q31,88,62.29,176c4,11.29,7.91,22.61,12.07,33.84,1.51,4.09.46,5.43-3.81,5.3C297.43,356.94,290.76,357.09,284.1,357.09ZM203.21,175.52C195.83,206,185.76,234.06,177.48,263c16.36,0,32.34-.09,48.32.07,3.48,0,4.19-.68,3.07-4.09C220,231.78,211.14,204.59,203.21,175.52Z" transform="translate(0 -6.81)"/><path class="cls-2" d="M377.12,274.14c0,25.83-.09,51.66.09,77.49,0,4.44-1.36,5.73-5.72,5.64-11.83-.26-23.66-.23-35.49,0-4.19.08-5.49-1.42-5.48-5.51q.15-78,0-156c0-3.6,1-5.06,4.79-5,12.16.19,24.33.22,36.49,0,4.16-.08,5.42,1.25,5.4,5.4C377,222.15,377.12,248.15,377.12,274.14Z" transform="translate(0 -6.81)"/><path class="cls-2" d="M354,173.22c-15.51-.13-25.94-11-25.75-27,.17-14.56,11.65-25.45,26.62-25.27,15.31.19,25.4,10.65,25.29,26.2S369.27,173.35,354,173.22Z" transform="translate(0 -6.81)"/></svg>