<svg id="Livello_1" data-name="Livello 1" xmlns="http://www.w3.org/2000/svg" viewBox="0 0 500 486.38"><defs><style>.cls-1{fill:#081b34;}.cls-2{fill:#47a2da;}</style></defs><title>logo-ps</title><path class="cls-1" d="M250,493.18q-79.93,0-159.86,0c-45,0-81.22-31.17-88.41-75.68A137.86,137.86,0,0,1,.11,395.33C.13,296.19-.25,197,.3,97.91.54,53.86,27.57,20,68.72,9.41a84.27,84.27,0,0,1,21-2.6q160.66.05,321.32,0a89,89,0,0,1,89,89q0,154,0,308c0,49.73-39.41,89.22-89,89.24Q330.49,493.21,250,493.18ZM113.22,241c0,34.68.05,69.37-.07,104,0,4.27,1.09,6,5.7,5.86,11.14-.31,22.3-.29,33.44,0,4.61.11,6.16-1.28,6.1-6-.23-19.82,0-39.64-.17-59.46,0-3.41.7-4.83,4.38-4.41a151,151,0,0,0,40.71-1.33c22.13-3.48,41.74-11.56,54.91-31.12,7.55-11.22,11-23.74,11.91-36.92,2-28.06-7.95-50.9-31.6-66.78-13.83-9.28-29.71-13-46.13-13.8-24.59-1.25-49.16.27-73.75.77-4.46.09-5.55,1.27-5.53,5.64C113.3,172,113.22,206.52,113.22,241Zm179.26,83c0,4.78.39,9.6-.1,14.32-.56,5.33,2.1,7.61,6.52,9.31a115.42,115.42,0,0,0,34.63,7.1c19.94,1.22,39.28-.27,57.18-11.07,28.84-17.4,31.08-62.51.43-80.7a176.61,176.61,0,0,0-28.56-13.72c-7.93-2.95-15.76-6.13-22.6-11.35-6.39-4.87-3.38-14,2.32-16.49,5.49-2.4,10.73-1.15,16.18-1.28A87.67,87.67,0,0,1,399,228.71c3.63,1.73,5.71,1.29,5.66-3.36q-.15-15.66,0-31.32c0-3.11-1.09-4.68-4-5.86-9.5-3.82-19.52-4.89-29.52-5.65-17.4-1.32-34.55-.49-50.69,7.54-32.33,16.08-39.2,61.79-4.92,83.91a154.08,154.08,0,0,0,28.39,14c7.38,2.84,15.12,5.16,21,10.82,5.49,5.27,4.3,12.22-2.57,15.55A30.44,30.44,0,0,1,350,317c-18.75.67-36.51-3.13-53-12.23-3.84-2.13-4.58-.87-4.53,2.75C292.52,313,292.47,318.49,292.48,324Z" transform="translate(0 -6.81)"/><path class="cls-2" d="M113.22,241c0-34.51.08-69-.1-103.52,0-4.37,1.07-5.55,5.53-5.64,24.58-.5,49.16-2,73.75-.77,16.43.83,32.31,4.52,46.13,13.8,23.66,15.88,33.59,38.71,31.6,66.78-.93,13.17-4.36,25.7-11.91,36.92-13.17,19.56-32.78,27.64-54.91,31.12A151,151,0,0,1,162.6,281c-3.68-.42-4.41,1-4.38,4.41.15,19.82-.06,39.64.17,59.46.06,4.73-1.49,6.13-6.1,6-11.14-.28-22.3-.3-33.44,0-4.61.13-5.71-1.59-5.7-5.86C113.27,310.4,113.22,275.71,113.22,241Zm45.41-34.57c0,10.44,0,20.89,0,31.33,0,2.26-.17,4,3.12,4.08,11.5.27,23.07,1,34.32-1.91,12.13-3.17,23.58-7.8,27.27-21.61,5.32-19.92-1.3-39.6-25.3-45-12.27-2.75-24.63-1.46-37-1.42-2.72,0-2.42,1.91-2.42,3.7Q158.64,191.06,158.62,206.46Z" transform="translate(0 -6.81)"/><path class="cls-2" d="M292.48,324c0-5.49,0-11,0-16.46,0-3.61.69-4.87,4.53-2.75,16.46,9.1,34.22,12.9,53,12.23a30.44,30.44,0,0,0,12.35-2.63c6.87-3.33,8.06-10.28,2.57-15.55-5.9-5.66-13.65-8-21-10.82a154.08,154.08,0,0,1-28.39-14c-34.28-22.12-27.41-67.83,4.92-83.91,16.14-8,33.28-8.86,50.69-7.54,10,.76,20,1.83,29.52,5.65,3,1.19,4.08,2.75,4,5.86q-.19,15.66,0,31.32c0,4.65-2,5.09-5.66,3.36a87.67,87.67,0,0,0-40.49-8.61c-5.45.13-10.69-1.12-16.18,1.28-5.7,2.49-8.71,11.62-2.32,16.49,6.84,5.22,14.67,8.4,22.6,11.35a176.61,176.61,0,0,1,28.56,13.72c30.66,18.18,28.41,63.29-.43,80.7-17.9,10.81-37.24,12.29-57.18,11.07a115.42,115.42,0,0,1-34.63-7.1c-4.42-1.7-7.09-4-6.52-9.31C292.87,333.58,292.48,328.76,292.48,324Z" transform="translate(0 -6.81)"/><path class="cls-1" d="M158.62,206.46q0-15.4,0-30.8c0-1.79-.3-3.69,2.42-3.7,12.34,0,24.71-1.33,37,1.42,24,5.37,30.62,25.06,25.3,45C219.62,232.16,208.16,236.79,196,240c-11.24,2.94-22.81,2.18-34.32,1.91-3.29-.08-3.13-1.83-3.12-4.08C158.65,227.35,158.62,216.9,158.62,206.46Z" transform="translate(0 -6.81)"/></svg>