<?xml version="1.0" encoding="utf-8"?>
<!-- Generator: Adobe Illustrator 21.0.0, SVG Export Plug-In . SVG Version: 6.00 Build 0)  -->
<svg version="1.1" id="Livello_1" xmlns="http://www.w3.org/2000/svg" xmlns:xlink="http://www.w3.org/1999/xlink" x="0px" y="0px"
	 viewBox="0 0 500 486.4" style="enable-background:new 0 0 500 486.4;" xml:space="preserve">
<style type="text/css">
	.st0{fill:#D14524;}
	.st1{fill:#ED6C3E;}
	.st2{fill:#FFFEFE;}
</style>
<title>logo-html</title>
<path class="st0" d="M500,89.1c0-49.2-39.8-89-89-89C303.9,0,196.8,0,89.7,0.1c-7.1,0-14.1,0.9-21,2.6C27.6,13.2,0.5,47,0.3,91.1
	c-0.6,99.1-0.2,198.3-0.2,297.4c0,7.4,0.5,14.8,1.6,22.2c7.2,44.5,43.4,75.7,88.4,75.7c53.3,0,106.6,0,159.9,0
	c53.6,0,107.3,0,160.9,0c49.6,0,89-39.5,89-89.2C500,294.5,500,191.8,500,89.1z"/>
<path class="st1" d="M250,456c46.9,0,93.9,0,140.8,0c42.8,0.2,77.7-34.3,77.9-77.1c0-0.3,0-0.6,0-1c0-89.9,0-179.7,0-269.6
	c0-43-34.8-77.9-77.8-77.9l0,0c-47,0-94,0-140.9,0"/>
<path class="st2" d="M220.6,337.3l1.9,0.5c0.3,0.6,1.1,0.8,1.7,0.5l1.9,0.5c1.2,1.1,2.9,1.5,4.5,1.3l1.9,0.4
	c0.3,0.6,1.1,0.8,1.7,0.5l1.9,0.5c0.4,0.6,1.1,0.8,1.7,0.4c3.8,1.5,7.6,3.1,11.8,2.9c0.4,0.1,0.9,0.2,1.3,0.2
	c19.7-5.2,39.5-10.5,59.2-15.8c2.2-0.6,3.1-2,3.3-4.2c1.9-21.7,3.9-43.4,5.9-65.1c0.4-3.9-0.7-5.3-4.9-5.3
	c-20.1,0.2-40.3,0.1-60.4,0.1c-1.5,0-3,0.2-4.5,0.4l-1.9-0.1c-0.7-0.7-1.9-0.7-2.6,0c-1.2-0.2-2.4-0.3-3.6-0.4c-36.5,0-73,0-109.4,0
	c-1.2,0.1-2.4,0.2-3.6,0.4l-6.2-0.8c-2.1-23.8-4.3-47.6-6.5-71.5c-2.4-26.8-4.9-53.7-7.3-80.5c-0.5-5.9-0.9-11.8-1.5-17.6
	c-0.2-2.2,0.5-3.1,2.7-3.1c1.2,0,2.4,0,3.6,0c43.5,0,87,0,130.4,0c2,0,3.9-0.2,5.9-0.4c1.7,0.1,3.3,0.3,5,0.3
	c44.3,0,88.5,0.1,132.8-0.1c4.4,0,5.8,1,5.3,5.5c-1.6,16-3,32-4.3,48c-0.3,3.9-2.1,4.6-5.5,4.6c-42.6-0.1-85.2-0.1-127.8-0.1
	c-1.8,0-3.6,0.2-5.5,0.3c-1.6-0.1-3.3-0.4-4.9-0.4c-13.5,0-27,0-40.4,0c-10.3,0-20.6,0-30.9,0c-2,0-4.1-0.2-3.7,3
	c0.7,5.8,1.3,11.7,1.9,17.5c-0.5,1.2-0.4,2.6,0.4,3.6c0.2,10.1,1.6,20,2.5,30c-0.9,4.7,2.3,4.4,5.3,4.4c30-0.1,60.1-0.1,90.1-0.2
	c35.6,0,71.3,0,106.9,0c5.7,0,5.8,0,5.3,5.8c-1.5,16.8-3.2,33.5-4.7,50.2c-3.4,38.5-6.8,76.9-10.1,115.5c-0.2,2.9-1.3,4.4-4.1,5.1
	c-11.6,3.1-23.1,6.3-34.6,9.5l-78.9,21.9c-15.5-4.4-30.8-8.8-46.3-13.1c-22.2-6.2-44.4-12.3-66.6-18.3c-2.9-0.8-4.4-2.2-4.3-5.4
	c-0.1-1.5-0.3-3-0.6-4.5c0.5-1.5,0.3-3.1-0.6-4.4c0.2-4.6-0.3-9.3-1.3-13.8c0.6-1.8,0.4-3.7-0.5-5.4c0.4-2.5,0.2-5-0.5-7.4
	c0.6-1.5,0.4-3.1-0.5-4.4c0.4-1.2,0.3-2.6-0.3-3.8c0.4-1.8,0.5-3.6-0.5-5.4c0.4-2.5,0.2-5-0.6-7.4c0.5-1.2,0.3-2.5-0.3-3.5
	c0.2-3.1,0-6.2-0.6-9.2c0.4-0.6,0.3-1.3-0.3-1.7c0.4-1.2,0.3-2.6-0.3-3.7c0.5-2.1,0.3-4.3-0.6-6.3c0-1.5,0-3.1,0.1-4.6
	c19-0.3,38.1-0.4,57.1,0.1l0.5,0.9c-0.4,1.5-0.5,3,0.5,4.4c-0.4,2.2-0.2,4.4,0.5,6.5c-0.5,1.8-0.4,3.7,0.5,5.3
	c-0.4,1.6-0.2,3.2,0.4,4.7c-0.4,1.8-0.6,3.6,0.6,5.3c-0.5,1.2-0.4,2.7,0.4,3.8c-0.6,1.5-0.5,3.1,0.5,4.4c-0.7,10,0.8,11.5,12.8,12.7
	c0.4,0.6,1.1,0.8,1.7,0.5c1.4,0.9,3,1.4,4.7,1.3c0.3,0.6,1.1,0.9,1.7,0.6c3,0.9,6,2.2,9.2,2.3C217.4,337.1,219,337.5,220.6,337.3z"
	/>
</svg>
