<?xml version="1.0" encoding="utf-8"?>
<!-- Generator: Adobe Illustrator 21.0.0, SVG Export Plug-In . SVG Version: 6.00 Build 0)  -->
<svg version="1.1" id="Livello_1" xmlns="http://www.w3.org/2000/svg" xmlns:xlink="http://www.w3.org/1999/xlink" x="0px" y="0px"
	 viewBox="0 0 500 500" style="enable-background:new 0 0 500 500;" xml:space="preserve">
<style type="text/css">
	.st0{fill:#185C37;}
	.st1{fill:#21A266;}
	.st2{fill:#107C41;}
	.st3{fill:#FBFCFC;}
</style>
<path class="st0" d="M500,95.9c0-49.2-39.7-89-89-89c-107.1-0.1-214.2,0-321.3,0c-7.1,0-14.2,0.8-21,2.6C27.6,20,0.5,53.9,0.3,97.9
	C-0.3,197,0.1,296.2,0.1,395.3c0,7.4,0.5,14.8,1.6,22.2c7.2,44.5,43.4,75.7,88.4,75.7c53.3,0,106.6,0,159.9,0
	c53.6,0,107.3,0,160.9,0c49.6,0,89-39.5,89-89.2C500,301.3,500,198.6,500,95.9z"/>
<path class="st1" d="M250,477.9c50.2,0,100.5,0,150.8,0c46.5,0,83.4-37,83.4-83.6c0.1-96.2,0.1-192.5,0.1-288.7
	c0-46.1-37.2-83.4-83.4-83.4c-50.3,0-100.6,0-150.9,0"/>
<path class="st2" d="M250,22.1c-50.1,0-100.1,0-150.2,0c-6.7,0-13.3,0.7-19.7,2.4C41.6,34.5,16.2,66.2,16,107.5
	c-0.6,92.9-0.2,185.8-0.2,278.7c0,6.9,0.5,13.9,1.5,20.8c6.7,41.7,40.7,70.9,82.8,70.9c49.9,0,99.9,0,149.8,0"/>
<path class="st3" d="M197,217.2c1.3-2.6-1.7-3.1-2.2-4.8c0.3-1.5-0.7-2-1.8-2.4c0,0,0.2,0.2,0.2,0.2c-0.4-1.5,0-3.4-1.8-4.4
	c0,0,0.1,0,0.1,0c0-0.6-0.2-1.1-0.8-1.4c-13-21.8-26-43.7-39-65.5c0,0,0,0,0,0c-1.2-2.1-2.5-4.2-3.7-6.3c0,0,0.1,0.1,0.1,0.1
	c-0.8-1.3-1.6-2.6-2.4-3.9c0,0,0.1,0.1,0.1,0.1c-0.8-1.2-1.6-2.5-2.3-3.7c-1.1-3.7,1.6-3.6,3.9-3.9c18.3,0,36.6,0.1,54.9,0.1
	c0.7,0.6,1.4,1.3,2.1,1.9c11.5,22.6,23.1,45.2,34.6,67.9l0.1,0.3c0.6,1.2,1.3,2.4,1.9,3.5l0.1,0.4c0.6,1.2,1.3,2.4,1.9,3.6l0.1,0.3
	c0.6,1.2,1.3,2.4,1.9,3.6l0.1,0.3c2.1,4.5,2.9,9.6,7.1,13c0.7,0,1.3,0.1,2,0.1c5.2-5.7,7.3-13.2,10.9-19.8
	c12.3-22.3,24.8-44.4,36.8-66.8c3.1-5.8,6.5-8.6,13.6-8.3c14.4,0.6,28.9-0.1,43.4-0.3l1,0.2c0,0,1-0.1,1-0.1
	c0.2,0.7,0.4,1.4,0.6,2.1c-0.4,1.1-0.9,2.2-1.3,3.3l0.1-0.1c-1.9,1.7-3.8,3.3-3.8,6.2l0.1-0.1c-0.8,1.3-1.6,2.5-2.5,3.8l0.5,0.3
	l-0.4-0.4c-0.8,1.2-1.6,2.4-2.3,3.5l-0.1,0.3c-0.5,0.8-0.9,1.6-1.4,2.4c0,0,0.1-0.1,0.1-0.1c-21.1,34-42.1,68.1-63.3,102.1
	c-2,3.2-2.3,5.6-0.1,8.8c6.2,9.2,12.1,18.7,18.1,28c9.7,15.7,19.3,31.4,29,47.1c0.7,1,1.3,2,2,3.1c0,0-0.2,0.1-0.2,0.1
	c0.8,1.2,1.6,2.4,2.4,3.6l0,0.1c8.1,14.4,16.6,28.5,26.1,42c-19.6,2.5-39.4,0.2-59,1.2c-3.9-6.1-7.8-12.3-11.6-18.4c0,0,0,0.1,0,0.1
	c-0.7-0.9-1.3-1.8-2-2.8c0.9-4.1-2-6.8-3.6-9.9c-12.3-23.2-24.7-46.4-37.5-70.3c-18.8,33.9-37.4,67.5-56.1,101.2
	c-19.7-0.2-39.5-0.4-59.2-0.6c1.7-2.9,3.4-5.7,5.2-8.6c0,0,0-0.2,0-0.2c0.5-0.8,0.9-1.5,1.4-2.3c0,0-0.1,0.1-0.1,0.1
	c0.8-1.2,1.7-2.3,2.5-3.5c0,0,0-0.1-0.1-0.1c0.6-0.9,1.1-1.7,1.7-2.6c22.9-35.4,45.8-70.8,68.6-106.2c1.8-2.8,2.7-6.3,0.3-9.1
	c-5.8-6.5-7.5-15.6-13.8-21.7c0,0,0,0,0,0c-0.2-1.7,0-3.5-2.3-4c0,0,0.1,0.2,0.1,0.2C198.4,219.1,197.7,218.1,197,217.2z"/>
</svg>
